<svg width="151" height="34" viewBox="0 0 151 34" fill="none" xmlns="http://www.w3.org/2000/svg">
<path d="M58.4762 15H54.9962L51.6562 0.339999H54.6562L56.0762 7.38L56.8962 11.62H56.9562L57.9362 7.38L59.5762 0.339999H62.8962L64.5562 7.38L65.5162 11.62H65.5762L66.4162 7.38L67.8362 0.339999H70.7162L67.2762 15H63.8162L61.9762 7.14L61.1962 3.68H61.1362L60.3162 7.14L58.4762 15ZM79.551 9.22V15H76.491V9.26L71.451 0.339999H74.851L78.091 6.32H78.131L81.291 0.339999H84.591L79.551 9.22ZM89.2876 15H86.4276V0.339999H89.7476L93.9276 7.52L95.3276 10.5H95.4076V0.339999H98.2676V15H94.9476L90.7676 7.82L89.3476 4.84H89.2876V15Z" fill="#2F39C0"/>
<path d="M5.88514 32.112V33H0.557141V24.204H5.88514V25.092H1.56514V28.092H5.64514V28.98H1.56514V32.112H5.88514ZM12.6691 32.112V33H7.89308V24.204H8.90108V32.112H12.6691ZM19.5258 32.112V33H14.1978V24.204H19.5258V25.092H15.2058V28.092H19.2858V28.98H15.2058V32.112H19.5258ZM24.5937 33.156C23.4817 33.156 22.6177 32.768 22.0017 31.992C21.3857 31.216 21.0777 30.104 21.0777 28.656C21.0777 27.184 21.3857 26.048 22.0017 25.248C22.6177 24.448 23.4817 24.048 24.5937 24.048C25.3137 24.048 25.9257 24.216 26.4297 24.552C26.9337 24.88 27.3257 25.352 27.6057 25.968L26.7897 26.46C26.5977 25.988 26.3137 25.62 25.9377 25.356C25.5697 25.084 25.1217 24.948 24.5937 24.948C23.8337 24.948 23.2377 25.224 22.8057 25.776C22.3737 26.328 22.1577 27.072 22.1577 28.008V29.28C22.1577 30.216 22.3697 30.948 22.7937 31.476C23.2257 31.996 23.8257 32.256 24.5937 32.256C25.1457 32.256 25.6137 32.116 25.9977 31.836C26.3817 31.548 26.6697 31.152 26.8617 30.648L27.6657 31.152C27.3937 31.784 26.9937 32.276 26.4657 32.628C25.9377 32.98 25.3137 33.156 24.5937 33.156ZM35.0864 24.204V25.092H32.2544V33H31.2464V25.092H28.4144V24.204H35.0864ZM37.5417 29.208V33H36.5337V24.204H40.0257C40.7937 24.204 41.3897 24.42 41.8137 24.852C42.2457 25.284 42.4617 25.896 42.4617 26.688C42.4617 27.344 42.3097 27.88 42.0057 28.296C41.7017 28.712 41.2577 28.984 40.6737 29.112L42.7137 33H41.5737L39.6297 29.208H37.5417ZM40.0257 28.344C40.4577 28.344 40.7897 28.232 41.0217 28.008C41.2617 27.776 41.3817 27.452 41.3817 27.036V26.4C41.3817 25.984 41.2617 25.664 41.0217 25.44C40.7897 25.208 40.4577 25.092 40.0257 25.092H37.5417V28.344H40.0257ZM47.7193 33.156C46.9673 33.156 46.3113 32.98 45.7513 32.628C45.1993 32.276 44.7713 31.76 44.4673 31.08C44.1633 30.4 44.0113 29.576 44.0113 28.608C44.0113 27.64 44.1633 26.816 44.4673 26.136C44.7713 25.448 45.1993 24.928 45.7513 24.576C46.3113 24.224 46.9673 24.048 47.7193 24.048C48.4793 24.048 49.1353 24.224 49.6873 24.576C50.2473 24.928 50.6793 25.448 50.9833 26.136C51.2873 26.816 51.4393 27.64 51.4393 28.608C51.4393 29.576 51.2873 30.4 50.9833 31.08C50.6793 31.76 50.2473 32.276 49.6873 32.628C49.1353 32.98 48.4793 33.156 47.7193 33.156ZM47.7313 32.256C48.2513 32.256 48.7073 32.136 49.0993 31.896C49.4993 31.648 49.8073 31.304 50.0233 30.864C50.2473 30.416 50.3593 29.896 50.3593 29.304V27.9C50.3593 27.308 50.2473 26.792 50.0233 26.352C49.8073 25.904 49.4993 25.56 49.0993 25.32C48.7073 25.072 48.2513 24.948 47.7313 24.948C47.2113 24.948 46.7513 25.072 46.3513 25.32C45.9593 25.56 45.6513 25.904 45.4273 26.352C45.2033 26.792 45.0913 27.308 45.0913 27.9V29.304C45.0913 29.896 45.2033 30.416 45.4273 30.864C45.6513 31.304 45.9593 31.648 46.3513 31.896C46.7513 32.136 47.2113 32.256 47.7313 32.256ZM54.3458 33H53.3618V24.204H54.5378L57.8498 29.736L58.8578 31.584H58.9058V24.204H59.8898V33H58.7138L55.3898 27.468L54.3818 25.62H54.3458V33ZM65.3401 33H61.8361V32.16H63.0841V25.044H61.8361V24.204H65.3401V25.044H64.0921V32.16H65.3401V33ZM70.3437 33.156C69.2317 33.156 68.3677 32.768 67.7517 31.992C67.1357 31.216 66.8277 30.104 66.8277 28.656C66.8277 27.184 67.1357 26.048 67.7517 25.248C68.3677 24.448 69.2317 24.048 70.3437 24.048C71.0637 24.048 71.6757 24.216 72.1797 24.552C72.6837 24.88 73.0757 25.352 73.3557 25.968L72.5397 26.46C72.3477 25.988 72.0637 25.62 71.6877 25.356C71.3197 25.084 70.8717 24.948 70.3437 24.948C69.5837 24.948 68.9877 25.224 68.5557 25.776C68.1237 26.328 67.9077 27.072 67.9077 28.008V29.28C67.9077 30.216 68.1197 30.948 68.5437 31.476C68.9757 31.996 69.5757 32.256 70.3437 32.256C70.8957 32.256 71.3637 32.116 71.7477 31.836C72.1317 31.548 72.4197 31.152 72.6117 30.648L73.4157 31.152C73.1437 31.784 72.7437 32.276 72.2157 32.628C71.6877 32.98 71.0637 33.156 70.3437 33.156ZM83.393 32.112V33H78.065V24.204H83.393V25.092H79.073V28.092H83.153V28.98H79.073V32.112H83.393ZM88.4609 33.156C87.3489 33.156 86.4849 32.768 85.8689 31.992C85.2529 31.216 84.9449 30.104 84.9449 28.656C84.9449 27.184 85.2529 26.048 85.8689 25.248C86.4849 24.448 87.3489 24.048 88.4609 24.048C89.1809 24.048 89.7929 24.216 90.2969 24.552C90.8009 24.88 91.1929 25.352 91.4729 25.968L90.6569 26.46C90.4649 25.988 90.1809 25.62 89.8049 25.356C89.4369 25.084 88.9889 24.948 88.4609 24.948C87.7009 24.948 87.1049 25.224 86.6729 25.776C86.2409 26.328 86.0249 27.072 86.0249 28.008V29.28C86.0249 30.216 86.2369 30.948 86.6609 31.476C87.0929 31.996 87.6929 32.256 88.4609 32.256C89.0129 32.256 89.4809 32.116 89.8649 31.836C90.2489 31.548 90.5369 31.152 90.7289 30.648L91.5329 31.152C91.2609 31.784 90.8609 32.276 90.3329 32.628C89.8049 32.98 89.1809 33.156 88.4609 33.156ZM96.3052 33.156C95.5532 33.156 94.8972 32.98 94.3372 32.628C93.7852 32.276 93.3572 31.76 93.0532 31.08C92.7492 30.4 92.5972 29.576 92.5972 28.608C92.5972 27.64 92.7492 26.816 93.0532 26.136C93.3572 25.448 93.7852 24.928 94.3372 24.576C94.8972 24.224 95.5532 24.048 96.3052 24.048C97.0652 24.048 97.7212 24.224 98.2732 24.576C98.8332 24.928 99.2652 25.448 99.5692 26.136C99.8732 26.816 100.025 27.64 100.025 28.608C100.025 29.576 99.8732 30.4 99.5692 31.08C99.2652 31.76 98.8332 32.276 98.2732 32.628C97.7212 32.98 97.0652 33.156 96.3052 33.156ZM96.3172 32.256C96.8372 32.256 97.2932 32.136 97.6852 31.896C98.0852 31.648 98.3932 31.304 98.6092 30.864C98.8332 30.416 98.9452 29.896 98.9452 29.304V27.9C98.9452 27.308 98.8332 26.792 98.6092 26.352C98.3932 25.904 98.0852 25.56 97.6852 25.32C97.2932 25.072 96.8372 24.948 96.3172 24.948C95.7972 24.948 95.3372 25.072 94.9372 25.32C94.5452 25.56 94.2372 25.904 94.0132 26.352C93.7892 26.792 93.6772 27.308 93.6772 27.9V29.304C93.6772 29.896 93.7892 30.416 94.0132 30.864C94.2372 31.304 94.5452 31.648 94.9372 31.896C95.3372 32.136 95.7972 32.256 96.3172 32.256ZM102.932 33H101.948V24.204H103.292L105.86 28.968H105.92L108.488 24.204H109.796V33H108.812V25.536H108.752L108.044 26.928L105.872 30.852L103.7 26.928L102.992 25.536H102.932V33ZM113.162 33H112.178V24.204H113.522L116.09 28.968H116.15L118.718 24.204H120.026V33H119.042V25.536H118.982L118.274 26.928L116.102 30.852L113.93 26.928L113.222 25.536H113.162V33ZM127.737 32.112V33H122.409V24.204H127.737V25.092H123.417V28.092H127.497V28.98H123.417V32.112H127.737ZM130.753 29.208V33H129.745V24.204H133.237C134.005 24.204 134.601 24.42 135.025 24.852C135.457 25.284 135.673 25.896 135.673 26.688C135.673 27.344 135.521 27.88 135.217 28.296C134.913 28.712 134.469 28.984 133.885 29.112L135.925 33H134.785L132.841 29.208H130.753ZM133.237 28.344C133.669 28.344 134.001 28.232 134.233 28.008C134.473 27.776 134.593 27.452 134.593 27.036V26.4C134.593 25.984 134.473 25.664 134.233 25.44C134.001 25.208 133.669 25.092 133.237 25.092H130.753V28.344H133.237ZM140.738 33.156C139.626 33.156 138.762 32.768 138.146 31.992C137.53 31.216 137.222 30.104 137.222 28.656C137.222 27.184 137.53 26.048 138.146 25.248C138.762 24.448 139.626 24.048 140.738 24.048C141.458 24.048 142.07 24.216 142.574 24.552C143.078 24.88 143.47 25.352 143.75 25.968L142.934 26.46C142.742 25.988 142.458 25.62 142.082 25.356C141.714 25.084 141.266 24.948 140.738 24.948C139.978 24.948 139.382 25.224 138.95 25.776C138.518 26.328 138.302 27.072 138.302 28.008V29.28C138.302 30.216 138.514 30.948 138.938 31.476C139.37 31.996 139.97 32.256 140.738 32.256C141.29 32.256 141.758 32.116 142.142 31.836C142.526 31.548 142.814 31.152 143.006 30.648L143.81 31.152C143.538 31.784 143.138 32.276 142.61 32.628C142.082 32.98 141.458 33.156 140.738 33.156ZM150.811 32.112V33H145.483V24.204H150.811V25.092H146.491V28.092H150.571V28.98H146.491V32.112H150.811Z" fill="#1E1E1E"/>
</svg>
